<svg id="svg" viewBox="0 0 583 629" xmlns="http://www.w3.org/2000/svg" xmlns:xlink="http://www.w3.org/1999/xlink" version="1.1" width="583" height="629" preserveAspectRatio="xMidYMid meet" buffered-rendering="static" style="background: rgb(255, 255, 255);"><g><path d="M 266.5 22.51217972507611 C 258.25 22.291811021518466 248.8 22.501729095383848 245.5 22.97866433366584 C 242.2 23.455599571947836 236.125 24.769104450160555 232 25.897564063027442 C 227.875 27.02602367589433 220 28.661631961102035 214.5 29.532249141266792 C 209 30.40286632143155 197.75 31.510987123100524 189.5 31.99473981164229 C 178.667045140486 32.62994842232611 172.97208344848846 33.4367156099416 169 34.89883789703548 C 165.975 36.01233915545997 160.94999618108295 38.62812387070973 157.83332484685104 40.711692819812725 C 154.7166535126191 42.79526176891573 148.38327230097323 47.875 143.75914437652688 52 C 139.1350164520805 56.125 130.79217341565214 62.875 125.21949318446381 67 C 119.6468129532755 71.125 112.93019416492137 75.87551557520777 110.29367365478798 77.55670127823949 C 106.3701897112922 80.05852331471813 104.76466418107735 82.05533985116578 101.44920521715082 88.55670127823949 C 99.22126808658376 92.92551557520777 97.11150885247463 98.3 96.76085136357494 100.5 C 96.19009222106257 104.0809020291206 94.9120866422953 105.54774492719851 84.56317284859085 114.5 C 76.07471906366456 121.84287723051428 72.57756734102296 125.56284910779429 71.40174966256903 128.5 C 70.5210326045986 130.7 69.219751658114 137.225 68.51001422593662 143 C 67.4496911846911 151.62764916372956 66.41889334450315 155.28319127263853 62.72937893456536 163.5 C 60.25976695648856 169 56.87526942716285 177.775 55.208273313841545 183 C 53.54127720052024 188.225 51.46603018587488 195.875 50.5966132812963 200 C 49.72719637671772 204.125 48.50738447585065 213.125 47.885920168258366 220 C 47.039797580791536 229.36030069268404 47.04555231654365 235.51411133502333 47.908831342183134 244.5 C 48.54289679543404 251.1 50.00083165181019 260.55 51.14868657857457 265.5 C 52.29654150533895 270.45 54.870164040654196 278.6608397108933 56.867847768164 283.7463104686517 C 58.8655314956738 288.83178122641016 60.57530536472339 292.88178122641017 60.66734525494087 292.7463104686517 C 60.75938514515835 292.6108397108933 60.40698148074881 288.9 59.88422600069745 284.5 C 59.361470520646094 280.1 59.223731741509575 271.1 59.578139824838516 264.5 C 59.93254790816746 257.9 60.54695487035655 250.7 60.94348862970317 248.5 L 61.66445910124247 244.5 L 62.39938617033543 250.5 C 62.80359605833656 253.8 63.800817221770004 260.325 64.61543320018754 265 C 65.43004917860507 269.675 67.24023966576551 277.325 68.63807872721074 282 C 70.03591778865596 286.675 72.96722604354181 294.325 75.15209707140151 299 C 77.33696809926121 303.675 81.52979913243244 311.1 84.4694993673376 315.5 C 87.40919960224277 319.9 92.30293071876424 326.2 95.34445740405202 329.5 L 100.87450592275707 335.5 L 97.52660874775229 325 C 95.68526530149967 319.225 93.0491007816296 309.325 91.66846537026328 303 C 90.28782995889695 296.675 88.87352136165143 289.475 88.52555737638436 287 L 87.89289558498967 282.5 L 94.24267931288523 294.5 C 97.73506036322779 301.1 102.7872043558166 309.65 105.4696659630826 313.5 C 108.15212757034861 317.35 115.1322192310365 325.225 120.98098076461127 331 L 131.61509264383812 341.5 L 132.20670591964972 350.5 C 132.5320932213461 355.45 133.55840118650983 363.1 134.48739028668024 367.5 C 135.41637938685068 371.9 137.47820516291677 378.875 139.0692253446049 383 C 140.66024552629298 387.125 143.55612221099938 393.2 145.50450686617464 396.5 C 147.4528915213499 399.8 150.83817656243042 404.525 153.02736251302028 407 L 157.00770060500182 411.5 L 155.10240858975607 406.5 C 154.05449798137087 403.75 152.27285546040224 397.9 151.14320298760353 393.5 C 150.01355051480482 389.1 148.73169928554 382.2411182587198 148.29464470034839 378.2580405749329 C 147.85759011515677 374.274962891146 147.725 371.0033027558212 148 370.9876847186556 C 148.275 370.97206668148993 149.59004831828236 373.55594842277014 150.92232959618303 376.7296441437227 C 152.2546108740837 379.9033398646752 155.11301515064153 385.425 157.2743390996449 389 C 159.43566304864825 392.575 163.35287039061873 397.975 165.97924430402378 401 C 168.6056182174288 404.025 173.50971394087097 408.6375 176.8772348005619 411.25 C 180.24475566025285 413.8625 183.00409703629768 415.6625 183.00910452510595 415.25 C 183.0141120139142 414.8375 181.42390266429726 407.3 179.47530597040162 398.5 C 177.526709276506 389.7 176.06011224020833 382.0984257401229 176.2162014452957 381.60761275582865 C 176.37229065038306 381.1167997715344 179.40228967023776 384.7167997715344 182.94953260052836 389.60761275582865 C 186.49677553081895 394.49842574012285 192.18279754967563 401.425 195.58513708687656 405 C 199.26487073898454 408.86647119208703 203.31312709173784 414.5386870860534 205.57692689142772 419 L 209.3826448101591 426.5 L 211.10972175445448 419.5 C 212.05961407381693 415.65 212.87351899153114 410.8125 212.9183993493749 408.75 C 212.9632797072187 406.6875 213.3375 404.9834937434675 213.75 404.96331942992776 C 214.1625 404.943145116388 218.17071460177544 409.105645116388 222.65714355950098 414.21331942992776 C 227.14357251722654 419.32099374346745 232.31857251722653 424.9361707603259 234.15714355950098 426.6914905785021 L 237.5 429.88298115700417 L 237 424.3493156440572 L 236.5 418.8156501311102 L 239.5 419.52416596743103 C 241.15 419.91384967740754 245.0875 422.20532839790775 248.25 424.61634090187596 C 251.4125 427.02735340584417 254.225 429 254.5 429 C 254.775 429 255 427.2 255 425 C 255 422.8 255.33749999999998 420.9965205873055 255.75 420.99226797178994 C 256.1625 420.9880153562744 257.5125 421.6630153562744 258.75 422.49226797178994 C 259.9982655482897 423.3287346148422 261.24705407742215 425.4469497635816 261.55490921096987 427.25 C 261.86010927700323 429.0375 262.3101092770033 431.7375 262.55490921096987 433.25 C 262.8986457955736 435.373781554141 262.6014973526352 435.9982392950222 261.25 435.99226797178994 C 260.2875 435.9880153562744 258.39268780718027 436.7755153562744 257.0393062381784 437.74226797178994 C 255.6859246691766 438.7090205873055 253.31698337141054 441.525 251.77499224314283 444 C 250.23300111487515 446.475 248.97781330769484 448.8375 248.9856860049644 449.25 C 248.993558702234 449.6625 250.99880688274274 452.1375 253.44179307276167 454.75 L 257.88358614552334 459.5 L 259.02467287313294 471.5 C 259.6522705733182 478.1 259.8882417994261 487.55 259.5490533755949 492.5 C 259.20986495176373 497.45 258.6413109719329 503.75 258.285600087082 506.5 C 257.79180370075557 510.3175386816365 256.89440692066546 512.2094767910181 254.49098640224676 514.5 C 252.75965976043832 516.15 251.08274310731767 518.4 250.76450495086752 519.5 C 250.44626679441737 520.6 249.9522620032932 522.625 249.66671652614716 524 C 249.3386787390809 525.5796151342483 246.26719059129596 528.8185271094288 241.32377146566807 532.7977108699397 C 237.02069715955062 536.2614518484066 229.9 540.8718288242505 225.5 543.0429930384817 C 221.1 545.2141572527129 213.225 548.1120912095881 208 549.4828462759821 C 202.775 550.853601342376 191.075 553.0620389979509 182 554.390485510593 C 171.95722814414194 555.8605995876369 161.880038767678 558.017875720256 156.25 559.9029214031528 C 151.1625 561.6063146314187 144.6375 564.1986619191526 141.75 565.6636931536725 C 138.8625 567.1287243881923 134.30497470656596 570.3912243881923 131.62216601459104 572.9136931536725 C 128.9393573226161 575.4361619191526 125.06344423259182 579.975 123.00902581453707 583 C 120.9546073964823 586.025 117.80077093925722 591.425 116.00050035403689 595 C 114.20022976881656 598.575 112.07509286913546 603.3 111.27797391030114 605.5 C 110.48085495146682 607.7 108.65188617837275 610.4 107.21359885898097 611.5 C 105.7753115395892 612.6 102.64561748748127 616.2 100.25872318763001 619.5 C 97.87182888777875 622.8 95.93715941153194 626.0625 95.95945768485932 626.75 C 95.98817089176349 627.635285127543 98.1882892347417 628 103.5 628 L 111 628 L 110.38412206870434 624.25 C 110.04538920649173 622.1875 109.25788920649173 619.7110075318114 108.63412206870434 618.7466834040256 C 108.01035493091696 617.7823592762396 106.825 616.981668226482 106 616.9673699601199 C 105.04540533523202 616.9508256585627 105.68171155966937 615.8612209141916 107.75 613.9706865560944 C 109.5375 612.3368089502425 111.69924077078099 609.0875 112.5538683795133 606.75 C 113.40849598824562 604.4125 117.12099598824562 597.137381761657 120.8038683795133 590.5830705814599 C 125.43350560287529 582.343826917931 128.88874581834838 577.4841928969795 132 574.8362342595403 C 134.475 572.7297854626817 139.425 569.4787725495556 143 567.6117611192603 C 146.575 565.744749688965 152.875 562.9951905806475 157 561.5016297674438 C 161.38781489629187 559.9129101590333 169.06453815210529 558.2435689150612 175.5 557.478713741378 C 181.55 556.7596707402456 188.3 555.8751359666305 190.5 555.5130809111222 L 194.5 554.8547989920163 L 192 556.8767452888678 C 190.625 557.988815752136 185.675 560.9192233105432 181 563.3887620853279 C 176.325 565.8583008601126 171.06916753408072 569.3685952533259 169.32037229795714 571.1894162924683 C 167.57157706183358 573.0102373316107 161.83407706183357 582.0375 156.57037229795714 591.25 L 147 608 L 149.0057364743372 613.75 C 150.10889153522265 616.9125 151.01787264271834 620.175 151.0256944909943 621 C 151.03351633927028 621.825 150.13093492581854 623.5125 149.0199580166571 624.75 C 147.9089811074957 625.9875 147 627.225 147 627.5 C 147 627.775 151.05 628 156 628 C 161.33333333333334 628 165 627.5925925925926 165 627 C 165 626.45 167.0831150337045 622.9625 169.6291445193433 619.25 C 172.17517400498213 615.5375 176.75851885198782 609.35 179.81435529046706 605.5 C 184.17032208963744 600.0119863204617 185.65487815801012 597.2040117253187 186.68736223370183 592.5 C 187.4116796140017 589.2 189.38012263622528 582.9 191.06168006086534 578.5 L 194.11905719657452 570.5 L 206.74554747659425 563 C 216.4397719301291 557.2417344971498 220.19970560552642 554.3912495962312 222.93601887830698 550.725662670244 C 224.9383653102142 548.043303535744 229.129028555085 544.342740873027 232.5 542.2801948820157 C 235.8 540.2610731298561 241.11528568714226 536.1095249282463 244.31174597142729 533.0545322117719 L 250.12349194285454 527.5 L 249.53175286431298 540 C 249.2062963711151 546.875 248.72851068397281 557.5625 248.4700068928857 563.75 L 248 575 L 245 576 C 243.35 576.55 242.225 577.45 242.5 578 C 242.77671775404312 578.5534355080862 244.45133459871977 578.732894158155 246.25 578.4018650235707 C 248.0375 578.0728907865347 251.975 577.166108317656 255 576.3867928705073 L 260.5 574.9698556938731 L 266.1142571056407 564.2349278469366 C 269.2020985137431 558.3307175311214 272.8020985137431 550.8938791235222 274.1142571056407 547.7086202744938 L 276.5 541.9172405489876 L 282 539.8594192814214 C 285.025 538.7276175842601 294.83670975474234 535.9337384607379 303.80379945498294 533.6507990069276 C 312.77088915522353 531.3678595531175 319.74588915522355 529.3589506410069 319.30379945498294 529.1865569800154 C 318.8617097547423 529.0141633190239 312.65 530.008689333331 305.5 531.3966147895867 C 298.35 532.7845402458423 289.125 534.6885795475397 285 535.627813237803 C 279.7726701471357 536.8180397366949 276.7284767151979 538.117989543245 274.9539091634973 539.9177554282318 C 273.5535592034209 541.3379899427043 270.1785592034209 548.0200805568254 267.4539091634973 554.7668456818342 L 262.5 567.0336913636683 L 262.2070581295296 542.2668456818342 C 262.04464896994546 528.5359215695516 261.4876583002754 516.9430093303299 260.9570581295296 516.25 C 260.28841789599966 515.3766985085605 261.20413859718434 513.4178662640459 263.99569738736733 509.75 C 266.19333095041935 506.8625 268.00148690934384 504.05 268.0138217405329 503.5 C 268.02615657172186 502.95 266.4819156625077 504.075 264.5821752756125 506 L 261.128101844894 509.5 L 261.314050922447 492.5 C 261.41632291510115 483.15 261.1625 471.7875 260.75 467.25 L 260 459 L 264 459 C 266.2 459 268.30462924083423 459.5625 268.67695386852057 460.25 C 269.0492784962069 460.9375 269.8367784962069 466.78968249574 270.42695386852057 473.25484999053333 L 271.5 485.00969998106666 L 274.25 485.00484999053333 C 275.7625 485.00218249574 278.575 484.325 280.5 483.5 C 283.23211725763906 482.32909260386896 284.20846281307814 481.1772684903276 284.95017091220245 478.25 C 285.4727649139138 476.1875 286.26026491391383 469.4001494986303 286.70017091220245 463.1669988858451 C 287.2691636380738 455.1047824765839 287.93291066575586 451.4660533514361 289 450.559100491399 C 289.825 449.8579069872389 293.2 447.72555261744293 296.5 445.82053522518584 C 299.8 443.91551783292874 306.1 440.89909857797727 310.5 439.11738132529376 C 314.9 437.3356640726102 321.0875 435.23036894377583 324.25 434.4389477056618 L 330 433 L 330.42292853256 435.25 C 330.655539225468 436.4875 331.17019777723834 440.875 331.5666142031607 445 L 332.28737134120155 452.5 L 323.8936856706008 457.7642149799646 C 319.27715855177036 460.6595332189451 314.0375 463.4720332189451 312.25 464.0142149799646 L 309 465 L 309.01663359916256 470.25 C 309.025782078702 473.1375 309.588282078702 477.1759964650237 310.26663359916256 479.22443658894144 L 311.5 482.94887317788294 L 316 482.3550109333751 C 318.475 482.0283866988958 323.5375 480.91489023387214 327.25 479.8805743444336 L 334 478 L 335 480.5 C 335.55 481.875 335.9889433729472 483.5625 335.97542971766035 484.25 C 335.9619160623735 484.9375 336.5871057847653 487.075 337.3647402118643 489 C 338.1423746389632 490.925 340.62843126601604 494.1875 342.88931049420387 496.25 C 345.15018972239176 498.3125 347.9 500.45 349 501 L 351 502 L 347.59598640843046 508.75 C 345.05045050972063 513.7976788220956 342.90678680421144 516.4457339877247 339.09598640843046 519.25 C 336.2931938837937 521.3125 334 523.225 334 523.5 C 334 523.775 334.5625 523.696634129992 335.25 523.3258536222046 C 335.9375 522.9550731144171 339.0875 520.9300731144172 342.25 518.8258536222046 C 346.8237085976906 515.7826641256163 348.6137172533788 513.7725654932424 351 509 C 352.65 505.7 353.9843739449947 502.4375 353.9652754333215 501.75 C 353.9461769216484 501.0625 351.18849028481463 498.7 347.8370829070243 496.5 L 341.74361494740555 492.5 L 339.8199084667215 485 C 338.7618699023452 480.875 337.69455653917896 477.1625 337.44810099301867 476.75 C 337.2016454468584 476.3375 335.875 475.55 334.5 475 C 332.3903493908496 474.1561397563398 331.84495724002824 473.02412652287603 331.0070257338284 467.75 C 330.46088988743406 464.3125 330.0108898874341 460.7125 330.0070257338284 459.75 C 330.0031615802228 458.7875 330.7875 457.79425387486435 331.75 457.5427863885875 C 332.7125 457.29131890231065 334.2258155221676 456.2788189023106 335.11292338259466 455.2927863885875 C 336.5352475653203 453.7118536161657 336.5943325788819 452.29539862853903 335.61292338259466 443.30620212429955 L 334.5 433.1124042485991 L 336.5 432.569856807592 C 337.6 432.2714557150381 342.6625 432.02116475910327 347.75 432.01365468329243 C 352.8375 432.0061446074816 362.5125 432.49743918831524 369.25 433.1054204184783 C 375.9875 433.7134016486413 382.2875 434.61340164864134 383.25 435.1054204184783 C 384.2125 435.5974391883152 385.22497484933797 437.4625 385.49994410963996 439.25 C 385.77491336994194 441.0375 387.2374133699419 445.2304225068684 388.74994410963996 448.5676055708187 L 391.5 454.6352111416374 L 385.5 454.13435321976215 L 379.5 453.63349529788695 L 373.1086270651238 459.5667476489435 C 369.5933719509419 462.83003644202455 365.9342952457515 466.85 364.9773454980341 468.5 L 363.23743686582054 471.5 L 366.9947320827604 486 L 370.7520272997003 500.5 L 363.62601364985017 507.76471892573784 L 356.5 515.0294378514757 L 357.7829406420485 527.7647189257378 C 358.82050421313954 538.0642318394143 359.42698976443324 540.786892155703 360.9539172925304 542 L 362.84195330096367 543.5 L 359.17097665048186 545.7134280824578 C 357.15193949271685 546.9308135278096 354.27074519219684 548.9558135278096 352.76832264932625 550.2134280824578 L 350.03664529865256 552.5 L 347.95217115940466 566 C 346.8057103828183 573.425 345.53118158381426 580.85 345.11988493939566 582.5 L 344.37207285863457 585.5 L 342.54759331503817 582 C 341.0634407930451 579.1528681452157 340.82028138486294 577.0077299537925 341.2440254585357 570.5 C 341.53052688643737 566.1 342.830326287863 559.2474881339114 344.13246857281484 555.2721958531364 C 345.4346108577667 551.2969035723614 346.05 548.1815952601403 345.5 548.349288492645 C 344.95 548.5169817251498 343.4821993029775 550.1944935912384 342.2382206732833 552.0770926395087 C 340.9942420435891 553.9596916877789 339.53174204358913 557.6375 338.9882206732833 560.25 C 338.4446993029775 562.8625 337.9925483110393 568.0375 337.98344069119844 571.75 C 337.9743330713576 575.4625 338.4053509037668 579.85 338.94125809655236 581.5 C 339.5298512330318 583.3122142943131 342.20892537425766 586.271163597184 345.7078174053539 588.9734422767606 C 348.89351783240926 591.433835528979 354.70423644198326 596.608835528979 358.62052542662946 600.4734422767606 C 363.00784353157667 604.8028620972888 366.8987154554184 609.8030946380394 368.756987540459 613.5 C 370.41575271841907 616.8 372.3865162764358 621.4229829651999 373.13646211382957 623.7732954782222 L 374.5 628.0465909564443 L 394.75 628.0232954782222 L 415 628 L 415.0336752446935 625.25 C 415.0521966292749 623.7375 415.50358926830796 617.775 416.03676999810034 612 C 416.6465644439823 605.3951796676148 417.7253570638699 600.0161220313848 418.944805949047 597.5 C 420.0890769892425 595.1389944596212 423.3657978375631 591.5536940791998 426.94171119564015 588.75 C 430.6482214788046 585.8439114305081 434.16093282379177 581.9619926294384 435.99061593836507 578.75 C 437.6354547044659 575.8625 438.98545470446584 572.2625 438.99061593836507 570.75 C 438.9977151961055 568.6695619609436 437.6000068089361 566.7258613980798 433.25 562.7669052908225 C 430.0875 559.8887032007749 424.125 554.2936854627382 420 550.3335325396298 C 415.875 546.3733796165214 410.025 539.9568517348597 407 536.0745816914927 C 403.41309330365806 531.4711633722989 400.8043297077607 529.022962469334 399.5 529.0361874111089 C 397.79280401367834 529.0534971199834 397.0255640446017 527.3321089932508 394.259361666951 517.2782329684236 C 392.4770105837741 510.8002048357906 391.01451058377404 504.7125 391.009361666951 503.75 C 391.004212750128 502.7875 392.6875 499.4393609007798 394.75 496.3096908906217 C 396.8125 493.18002088046364 400.525 489.14394957081333 403 487.3406435358432 C 405.475 485.53733750087304 413.125 481.1657702679216 420 477.6260496848399 C 426.875 474.0863291017583 436.325 469.84306630021285 441 468.19657679251685 C 445.675 466.55008728482085 452.9875 464.7072936169925 457.25 464.1014797528984 C 461.5125 463.4956658888043 468.0375 462.9972870212239 471.75 462.9939711582753 C 475.4625 462.99065529532675 481.2 463.4747219080617 484.5 464.0696747421308 C 487.8 464.66462757619996 493.65 466.6386532778012 497.5 468.456398523467 C 502.2060563408547 470.67832359864207 505.9268840176331 473.35709151746903 508.85415581529725 476.6306949396115 C 511.24894151371075 479.30881272282517 514.3520758210035 483.75 515.7500098315033 486.5 C 517.1479438420031 489.25 519.511957994797 495.1 521.0033746154896 499.5 C 522.4947912361823 503.9 524.5308635000196 512 525.5279796462393 517.5 C 526.9465378858501 525.3246354223022 528.0314149201021 528.478914059964 530.5150840855331 532 C 532.2608753809251 534.475 534.434168809795 538.4125 535.3446250385774 540.75 C 536.2962639836121 543.1932322649858 537.0041412928796 547.8695722850225 537.0097414263037 551.75 C 537.0150992107706 555.4625 536.3553775525914 560.75 535.5436932970166 563.5 C 534.7320090414418 566.25 532.6725410571061 570.075 530.9670977762707 572 L 527.8662918111154 575.5 L 528.45973645778 572 C 528.7861310134455 570.075 529.3787153559446 566.8041351172711 529.7765905522223 564.7314113717136 C 530.3020567955909 561.994004339789 530.1579682415381 560.9679090644036 529.25 560.9814113717136 C 528.5625 560.9916351172711 527.3206163581634 563.3625 526.4902585736963 566.25 C 525.6599007892294 569.1375 524.9773621811805 572.175 524.9735061113656 573 C 524.9696500415506 573.825 523.3103987508175 580.125 521.2862810208477 587 C 519.2621632908779 593.875 515.4923658862799 605.8 512.9089534550745 613.5 C 510.3255410238692 621.2 508.39667595643033 627.725 508.6225866385437 628 C 508.84849732065703 628.275 509.4466296772797 628.05 509.9517696532606 627.5 C 510.4569096292416 626.95 513.0867342194463 619.975 515.7958242981599 612 C 518.5049143768737 604.025 521.9941734154875 593.225 523.5497332728572 588 C 525.964078792458 579.890408279599 526.9536416034236 577.9877443180425 530.3109463942893 575 C 532.4740537537072 573.075 535.2014983711175 569.7 536.3719344329791 567.5 C 538.1712906091875 564.1178557576544 538.5 561.8008966664505 538.5 552.5 L 538.5 541.5 L 533.8591661729001 534 C 530.7027513951576 528.8989531375092 529.0039896318231 524.9006979083272 528.5482190660978 521.5 C 528.1796567622614 518.75 526.9910223407018 512.675 525.9068092404096 508 C 524.8225961401175 503.325 521.9250223381786 495.3375 519.467756347212 490.25 C 516.4282906741453 483.9571193478553 513.3216349647307 479.29932710508297 509.75 475.6802200292011 C 506.8625 472.7543410452617 502.475 469.16836626962737 500 467.7113871944582 C 497.525 466.254408119289 491.675 464.09203360863967 487 462.90611050412633 C 479.92844427256153 461.112244980699 476.651425059038 460.83668041317344 467.5 461.26635537404536 C 461.0008907214189 461.5714996009784 453.3289179008185 462.6455989800041 448.75 463.8914120351761 C 444.4875 465.0511354158292 436.8375 467.7989361274641 431.75 469.99763583880906 C 426.6625 472.19633555015406 421.6 474.00154253626255 420.5 474.00920691905014 C 419.4 474.01687130183774 416.25 473.26756147910055 413.5 472.34407397963423 C 409.83549055055965 471.11348173663987 406.7583996657943 468.90683171455214 401.9795482698253 464.08250289939315 C 397.80280151005496 459.8660085836715 394.33865473997525 455.1636461800446 392.3419010037326 451 C 390.6274434589777 447.425 388.4991467375563 442.1375 387.6123527339073 439.25 L 386 434 L 388.25 427.6193785249844 C 390.2622510370351 421.9129731116383 390.34150069135677 421.0570601220644 389 419.5192202634072 C 388.175 418.5734750307983 385.1375 416.26975469455533 382.25 414.39984173842277 C 379.3625 412.52992878229026 376.325 411 375.5 411 C 374.64285714285717 411 373.57142857142856 409.5 373 407.5 C 372.4248772043243 405.48707021513496 372.3692361380483 403.46890349459466 372.8690420062322 402.75 C 373.3470151096599 402.0625 374.24701510965986 399.1375 374.8690420062322 396.25 C 375.4910689028045 393.3625 376.45 390.775 377 390.5 C 377.55 390.225 378 391.125 378 392.5 C 378 393.875 378.5625 396.13796457076967 379.25 397.5288101572659 C 379.9375 398.9196557437622 380.725 400.04314793931866 381 400.02545948072475 C 381.275 400.0077710221309 382.2875 395.9448064513612 383.25 390.9966493234589 C 384.2125 386.0484921955565 386.65991753173483 377.6125 388.6887056260774 372.25 C 391.10422916098975 365.8652794902098 394.368442998856 359.73874503367404 398.14589484670046 354.5 C 401.3185608237006 350.1 406.24566259679773 342.225 409.09500989802746 337 C 411.9443571992571 331.775 416.304917765096 324.35 418.7851444887804 320.5 C 421.26537121246486 316.65 425.6482272980953 308.775 428.52482467907043 303 C 431.4014220600455 297.225 435.4275141052661 288 437.47169589067175 282.5 C 439.5158776760775 277 442.2613660816536 268 443.5727812363965 262.5 C 444.8841963911395 257 446.38664046552395 249.35 446.91154584613986 245.5 C 447.43645122675576 241.65 448.1635766844659 234.45 448.5273801966068 229.5 C 448.89118370874775 224.55 448.7002979762455 215.325 448.1031896799351 209 C 447.50608138362475 202.675 446.37414043792404 195.25 445.5877653561558 192.5 C 444.80139027438753 189.75 442.9467085698767 183.45 441.4662504572429 178.5 C 439.9857923446091 173.55 436.96872269786047 164.775 434.76165124224605 159 C 432.5545797866316 153.225 427.2966371669038 141.075 423.07733430951754 132 C 418.8580314521313 122.925 413.4414800293054 112.8 411.0405533699044 109.5 C 408.63962671050336 106.2 403.5147795996839 99.675 399.65200423474994 95 C 395.78922886981604 90.325 387.8748016313425 81.60561090463965 382.0643881492532 75.62357978808811 C 376.25397466716396 69.64154867153658 367 60.84726232290122 361.5 56.08072123556511 C 356 51.31418014822899 349.475 46.22682861848757 347 44.77549561391752 C 344.525 43.32416260934747 337.55 40.12137781497193 331.5 37.65819607086077 C 325.45 35.195014326749614 315.775 31.5442782247166 310 29.545449177454067 C 304.225 27.546620130191535 295.45 25.23658254461813 290.5 24.412032320624277 C 285.55 23.587482096630424 274.75 22.73254842863375 266.5 22.51217972507611 Z " class="odd" fill="#000000"></path><path d="M 268.5 24.57391636364212 C 275.65 24.823722711478318 284.425 25.48605439204959 288 26.04576454268939 C 291.575 26.60547469332919 298.55 28.23892809386175 303.5 29.675660988317308 C 308.45 31.112393882772864 317.225 34.185441380663285 323 36.504655428073804 C 328.775 38.823869475484315 336.65 42.3101671169383 340.5 44.25198352019377 C 344.35 46.193799923449234 350.425 49.94348206118417 354 52.584610492938076 C 357.575 55.22573892469198 364.4897301621839 61.23716319495296 369.36606702707536 65.94333109351804 C 374.2424038919668 70.64949899208312 382.5913209003382 79.45 387.9192159345674 85.5 C 393.24711096879656 91.55 400.3110455074104 99.875 403.6168482425982 104 C 406.922650977786 108.125 411.256943357135 114.2 413.248609085596 117.5 C 415.240274814057 120.8 418.665876829584 127.325 420.8610580089894 132 C 423.0562391883947 136.675 427.0835662194566 146.125 429.81067363357135 153 C 432.5377810476861 159.875 435.0925461520742 166.625 435.4879294211005 168 C 435.8833126901268 169.375 432.62218763628096 165.1 428.2409848569987 158.5 C 423.8597820777164 151.9 417.51292492068904 143.35 414.1368578413824 139.5 C 410.76079076207577 135.65 405.4113793971393 130.3025167309191 402.24927703041243 127.61670384648693 C 399.0871746636856 124.93089096205473 394.7 121.52591163957898 392.5 120.05008312987414 C 390.3 118.5742546201693 385.8 115.87838268269083 382.5 114.0592566021442 C 379.2 112.24013052159758 375.15 110.57269415782027 373.5 110.35384246041684 C 371.85 110.13499076301343 369.9270816356091 109.4033459695728 369.2268480791314 108.72796514165987 C 368.51215264309997 108.03863571603152 367.6348708738416 107.88903268934416 367.2268480791314 108.38690476190568 C 366.82708163560915 108.8747023809538 367.175 109.53083003703033 368 109.84496621985349 C 368.825 110.15910240267667 371.75 112.20300000373662 374.5 114.38696088887562 C 377.25 116.57092177401461 383.55 122.48911076745081 388.5 127.53849198540051 C 393.45 132.58787320335023 400.05724294647484 140.2698684594327 403.18276210327747 144.60959255447273 C 406.30828126008004 148.94931664951272 411.12377220152354 156.775 413.883853084263 162 C 416.64393396700245 167.225 419.6199184429697 173.525 420.49715191974576 176 C 421.37438539652186 178.475 421.6964271742534 180.05 421.21280031470474 179.5 C 420.7291734551561 178.95 417.0081755348168 174 412.943916047284 168.5 C 408.8796565597512 163 401.2671238405762 154.1737588553008 396.0271766713395 148.8861307895573 C 390.7872295021028 143.59850272381382 382.675 136.49665631508753 378 133.10424988127664 C 373.325 129.71184344746575 369.39537724511786 127.06308459216497 369.2675049891508 127.21811909171933 C 369.1396327331837 127.3731535912737 370.5919119528473 130.425 372.49479214395876 134 C 374.3976723350702 137.575 375.9647950899523 141.2875 375.977287154808 142.25 C 375.9897792196636 143.2125 377.07756102841967 146.1375 378.39458006315476 148.75 C 379.71159909788986 151.3625 382.4417590933207 158.225 384.4616022752232 164 C 386.48144545712574 169.775 389.4538844287061 179.7875 391.0670222120684 186.25 C 392.6801599954308 192.7125 394.00688777823643 198.5625 394.0153061738587 199.25 C 394.0237245694809 199.9375 390.8967142206209 194.2 387.066394287503 186.5 C 383.2360743543851 178.8 375.8367405122904 165.975 370.6234301939593 158 C 365.4101198756282 150.025 359.08592724355873 140.575 356.56966878936055 137 C 353.81589749891083 133.08755120248784 351.995717614587 129.40526679894745 351.9973267090455 127.75 C 351.9987970190705 126.2375 350.59022713843535 120.6125 348.8671714187452 115.25 C 347.1441156990551 109.8875 344.2764126341776 102.35 342.4944979412396 98.5 C 340.7125832483017 94.65 337.92975346707004 89.7 336.3104317607248 87.5 C 334.5777801842147 85.14603077116442 330.92469202878976 82.19164582482743 327.4331052382304 80.32058392080478 C 324.1698973572037 78.57190507724741 317.675 75.7181236617208 313 73.97884744185676 C 308.325 72.23957122199272 296.2875 69.05780845763057 286.25 66.90826352105198 C 276.2125 64.75871858447339 267.1 63 266 63 C 264.9 63 262.8135498797523 64.0125 261.36344417722734 65.25 C 259.2650858410915 67.0407097644307 258.8568278539188 68.06135473236247 259.36344417722734 70.25 C 259.7135498797523 71.7625 261.6886244640345 74.6875 263.7524988089655 76.75 C 265.81637315389656 78.8125 271.46916948737754 83.875 276.3142684389233 88 C 281.1593673904691 92.125 290.38324292643455 99.44995733217729 296.8117696299578 104.27768296039399 C 303.240296333481 109.10540858861069 312.775 115.26096398000011 318 117.95669494125939 C 323.225 120.65242590251866 332.225 124.43683304628156 338 126.36648859406584 L 348.5 129.8749532264009 L 354.3038599286318 138.18747661320043 C 357.4959828893794 142.7593644759402 361.7081188723314 149.425 363.6641621129697 153 C 365.62020535360796 156.575 369.2318422552359 164.225 371.69002189436515 170 C 374.1482015334944 175.775 377.72066321912223 185.675 379.6288256402048 192 C 381.53698806128733 198.325 384.1687200722434 209.35 385.4771189978848 216.5 C 386.78551792352624 223.65 388.1530711886395 232.875 388.516126253692 237 L 389.1762263719693 244.5 L 382.80675927437994 231 C 379.3035523707058 223.575 374.25068369808764 213.675 371.57816222411736 209 C 368.90564075014703 204.325 363.4714036841771 195.55 359.50207985529534 189.5 C 355.53275602641355 183.45 348.52928845265376 173.775 343.9388185802737 168 C 339.3483487078936 162.225 329.4966950340856 151.29745557348622 322.0462548607004 143.71656794108048 C 314.59581468731517 136.13568030867475 308.1625 129.94818030867475 307.75 129.96656794108048 C 307.3375 129.98495557348622 308.5274340669324 132.1375 310.3942979265165 134.75 C 312.26116178610056 137.3625 317.04049841680705 144.9 321.01504599475317 151.5 C 324.9895935726993 158.1 331.05669385530575 169.125 334.4974910672121 176 C 337.93828827911835 182.875 342.66273000465657 193 344.9962504572969 198.5 C 347.32977090993734 204 350.73979378889936 213 352.57407907721245 218.5 C 354.4083643655256 224 356.7170860092809 232.2009017104296 357.7045716188909 236.7242260231769 C 358.6920572285009 241.2475503359242 359.3875 244.9600503359242 359.25 244.9742260231769 C 359.1125 244.9884017104296 356.8985308685484 241.5125 354.33006859677425 237.25 C 351.76160632500006 232.9875 344.92859266288775 222.525 339.1455937920802 214 C 333.36259492127266 205.475 324.5959032149769 192.875 319.66405666697847 186 C 314.73221011898005 179.125 301.65272378109233 161.4454415401707 290.59853147167246 146.71209231149047 C 279.54433916225264 131.9787430828102 270.4135566522034 120.05374308281021 270.30790367156317 120.21209231149047 C 270.20225069092294 120.3704415401707 272.27998825419354 126.575 274.925098256609 134 C 277.57020825902447 141.425 281.42959358134436 152.9 283.50151008398655 159.5 C 285.57342658662867 166.1 289.04227416981456 176.9 291.210060268844 183.5 C 293.3778463678735 190.1 296.9174043933502 199.2125 299.07574476990334 203.75 C 301.2340851464565 208.2875 302.775 212 302.5 212 C 302.225 212 299.57846282174967 208.2875 296.61880627055484 203.75 C 293.6591497193601 199.2125 288.4255346257266 190.775 284.9885505069249 185 C 281.55156638812326 179.225 274.9193369826536 167.525 270.2502629392145 159 C 265.5811888957754 150.475 259.83407494071 140.575 257.47889859462475 137 C 255.12372224853948 133.425 252.8982107509907 129.375 252.5333174889608 128 C 252.1684242269309 126.625 251.65189666614742 125.725 251.3854784649975 126 C 251.11906026384756 126.275 251.99133099739075 130.1 253.3238578728713 134.5 L 255.7466340101086 142.5 L 254.77549764462339 155.5 C 254.24137264360652 162.65 253.4269038265206 169.4 252.965566939988 170.5 C 252.2690296566342 172.16080587539378 252.11602247049652 171.94880954751488 252.06338630041893 169.25 C 252.0285238351885 167.4625 250.60131612630042 159.1375 248.89181361400094 150.75 C 247.18231110170146 142.3625 244.11733300166293 128.75 242.08075116947086 120.5 L 238.37787511093984 105.5 L 237.6837390246821 121 C 237.30196417724036 129.525 236.32263865015764 143.925 235.5074600756094 153 C 234.6922815010612 162.075 233.4571208399157 172.65 232.76265860639722 176.5 C 231.87739586795826 181.40777090313784 231.53748687156275 194.5589252262714 231.62542034776826 220.5 L 231.7508406955365 257.5 L 228.5236671543945 250.5 C 226.74872170676642 246.65 222.56188820526353 235.85 219.21959270661034 226.5 C 214.3937373436312 212.99977308648 212.80906012849957 207.0295719389553 211.52209004242098 197.5 C 210.63075907577007 190.9 209.46784125716482 183.925 208.9378282232982 182 C 208.40781518943157 180.075 207.30754146734796 170.625 206.49277550755681 161 C 205.6780095477657 151.375 205.00882171137812 139.5625 205.00569142669556 134.75 C 205.002561142013 129.9375 204.6625 126.17736191004914 204.25 126.394137577887 C 203.8375 126.61091324572484 202.825 133.69841324572485 202 142.144137577887 C 201.07879249913245 151.57476134158074 200.53077844315382 167.14654165220753 200.5797654855582 182.5 C 200.63716374401858 200.48969129903497 201.13620603658498 210.72474200244392 202.35943851371493 219 C 203.29438766214412 225.325 205.15878800512755 235 206.5025503870114 240.5 C 207.8463127688953 246 210.33032105234813 253.875 212.0225687946844 258 L 215.09938287165937 265.5 L 211.45832476738497 262 C 209.45574281003405 260.075 205.0823273579858 255.125 201.73962376283333 251 C 198.39692016768083 246.875 192.991873378018 239.45 189.7284086746937 234.5 C 186.46494397136937 229.55 181.63711034258753 221 178.99988949962295 215.5 C 176.36266865665837 210 172.99429336014023 202.125 171.51461106291598 198 C 170.03492876569172 193.875 167.52816175446873 185.775 165.94401770464268 180 L 163.06375579586802 169.5 L 163.6104460240512 177 C 163.911125649552 181.125 164.8080017950098 190.35 165.60350412506858 197.5 C 166.39900645512736 204.65 167.97239855611565 215 169.09993101615368 220.5 C 170.22746347619167 226 172.44555837718758 234.55 174.02903079614458 239.5 C 175.61250321510158 244.45 176.81625545736054 248.60194580565505 176.70403577894228 248.726546234789 C 176.59181610052403 248.85114666392295 174.18938659879552 245.47614666392295 171.36530355287894 241.226546234789 C 168.54122050696236 236.97694580565505 164.17649052298185 229.675 161.66590358847782 225 C 159.15531665397378 220.325 155.53867910918345 211.775 153.62893126672154 206 C 151.71918342425963 200.225 149.26859752842782 191 148.18318483153973 185.5 C 146.49169814539874 176.92890367834448 146.2436640615389 171.99918598805604 146.44734995604136 151 C 146.62329532131935 132.86074957112533 147.13003504260672 124.16339811672948 148.39918331038365 117.5 C 149.34198813990795 112.55 152.10281053574172 102.65 154.53434419001422 95.5 C 156.96587784428675 88.35 158.9728687146451 81.375 158.9943239019217 80 C 159.02003582957374 78.3521979992134 158.69866715804037 77.84087919968536 158.05155980299742 78.5 C 157.51158436131252 79.05 155.02908436131244 85.6875 152.5348931363306 93.25 C 150.04070191134878 100.8125 146.90133222706305 112.5125 145.55851606014014 119.25 C 144.21569989321722 125.9875 142.83115801451856 135.325 142.48175632969867 140 C 142.1323546448788 144.675 141.00905678678086 152.55 139.9855388672588 157.5 C 138.96202094773676 162.45 137.39538571251066 171.675 136.50412723342305 178 C 135.61286875433544 184.325 134.62360561554664 196.925 134.3057647027813 206 C 133.96098814738914 215.84406699868052 134.20206196721213 227.34067854641415 134.9033846046479 234.5 C 135.54991646343987 241.1 137.0255068610377 250.775 138.18247437708754 256 C 139.3394418931374 261.225 140.43992384893974 267.525 140.6279898344261 270 L 140.96992798985582 274.5 L 135.50532866947214 263.5 C 132.4997990432611 257.45 128.44906129375835 247.55 126.50368922613266 241.5 C 124.55831715850698 235.45 121.84768683871754 225.55 120.48006629326724 219.5 C 119.11244574781695 213.45 117.28209118843967 203.1 116.41261171687329 196.5 C 115.54313224530691 189.9 114.63357787022228 183.375 114.39137977224078 182 C 114.14918167425928 180.625 113.73556872834645 179.725 113.47223989243449 180 C 113.20891105652252 180.275 113.50314089776647 186.8 114.1260839840877 194.5 C 114.74902707040893 202.2 114.99641325205134 213.45 114.67583105440418 219.5 C 114.35524885675703 225.55 114.48531335511224 236.8 114.96486327297133 244.5 C 115.44441319083042 252.2 116.59797824754565 263 117.52834117678296 268.5 C 118.45870410602026 274 120.34038769226082 282.1 121.70986025731753 286.5 C 123.07933282237424 290.9 125.49983422549177 299.45 127.08875226424539 305.5 C 128.677670302999 311.55 129.87021296848846 316.87950210354853 129.73884707644416 317.34333800788556 C 129.60748118439986 317.80717391222265 127.2013056756276 315.55717391222265 124.39179039028352 312.34333800788556 C 121.58227510493946 309.12950210354853 116.69623947894647 302.9 113.53393344363245 298.5 C 110.37162740831843 294.1 105.15889503462334 285.1 101.95008372431005 278.5 C 98.74127241399675 271.9 94.79034393963221 262.675 93.17024267016662 258 C 91.55014140070102 253.325 89.01913964725087 244.325 87.54579432916626 238 C 86.07244901108164 231.675 84.40658865251893 222.45 83.8438824212491 217.5 C 83.28117618997928 212.55 83.05972336254538 205.575 83.35176502695154 202 C 83.6438066913577 198.425 85.23786064411426 190.325 86.89410714418834 184 C 88.55035364426242 177.675 91.97817655190255 166.425 94.51149138338863 159 C 97.04480621487471 151.575 101.55137044722802 140.55 104.52607856639598 134.5 C 107.50078668556394 128.45 112.42434505687537 120.2375 115.4673193915325 116.25 C 118.51029372618963 112.2625 121 108.55 121 108 C 121 107.45 120.325 107 119.5 107 C 118.675 107 112.9375 110.42797392640742 106.75 114.61771983646094 C 100.5625 118.80746574651447 92.125 125.04746259200897 88 128.4843794931154 C 83.875 131.92129639422183 78.8125 136.5933224678144 76.75 138.86665965665446 C 74.6875 141.1399968454945 72.53708292484905 144.6875 71.97129538855343 146.75 C 71.40550785225781 148.8125 70.67181296419176 154.1 70.3408623039622 158.5 C 69.8341373124737 165.23692556166174 70.16630660279765 168.15778520031895 72.44474014515082 177 C 73.93282361803412 182.775 76.30136585910863 190.425 77.7081673475386 194 C 79.5613342792648 198.70931530525667 80.11846285365147 201.60195981214974 79.73048637675909 204.5 C 79.43596035440038 206.7 78.393283319655 212.775 77.41342629954714 218 C 76.13445565479097 224.81999667473465 75.63186808116922 232.43684823075193 75.63186808116923 245 C 75.63186808116924 257.2601203692408 76.14977193930953 265.3445060852693 77.36154856166185 272 C 78.31287282593279 277.225 80.1337848257452 285.1 81.40801967235609 289.5 C 82.68225451896699 293.9 85.1886909445013 300.875 86.97787839576569 305 C 88.76706584703007 309.125 91.07465979854466 314.975 92.10586495468702 318 C 93.13707011082938 321.025 93.76010715081031 323.6125 93.4903917102002 323.75 C 93.22067626959009 323.8875 91.70519485364466 322.0875 90.12265523032144 319.75 C 88.54011560699823 317.4125 85.78991333577899 313.025 84.011094627612 310 C 82.232275919445 306.975 79.04454029579851 300.45 76.92723768617535 295.5 C 74.80993507655218 290.55 71.73546559167397 281.325 70.0950832753349 275 C 68.45470095899583 268.675 66.54052126466979 259.675 65.84135062127706 255 C 65.14217997788433 250.325 64.55435173398178 239.075 64.53506563482695 230 C 64.51577953567212 220.925 64.81605070369972 210.125 65.20233489711049 206 C 65.71214002128441 200.55596119880266 65.62755182326015 199.1853203996009 64.89376317622809 201 C 64.337764536332 202.375 63.42607402225053 208.225 62.86778425604706 214 C 62.30949448984358 219.775 60.961457238373036 231.475 59.872145919445856 240 C 58.782834600518676 248.525 57.62188281011463 260.675 57.2922530518813 267 L 56.69292621872981 278.5 L 55.356267847643494 274 C 54.62110574354602 271.525 53.31397284055397 266.125 52.45152806321673 262 C 51.58908328587948 257.875 50.52259562986247 249.55 50.08155549429004 243.5 C 49.640515358717614 237.45 49.64039388968562 227.55 50.081285563107826 221.5 C 50.522177236530034 215.45 51.82172758078269 206 52.969175217002615 200.5 C 54.11662285322254 195 56.785552304834496 185.325 58.90012955391808 179 C 61.01470680300166 172.675 64.3168530587743 164.35 66.23823234452394 160.5 C 69.0567691677997 154.8523036549351 69.86357739238531 151.85791699043597 70.41455587325858 145 C 70.79015452831298 140.325 71.73509521757865 134.475 72.51442407162672 132 C 73.68619879332476 128.27866667435902 76.05702576326645 125.51761708717149 86.2156928122207 116.04359201249807 L 98.5 104.58718402499613 L 100.05959854853226 98.54359201249807 C 100.91737775022501 95.21961640562412 102.56836804577941 90.475 103.72846587198649 88 C 104.88856369819356 85.525 107.33674435135404 82.2412019973498 109.16886732345422 80.7026711052218 C 111.0009902955544 79.16414021309379 115.875 75.7108285768121 120 73.02864524681807 C 124.125 70.34646191682404 134.475 62.44283938717574 143 55.4650396253774 C 151.525 48.48723986357906 160.3 41.72434914448684 162.5 40.43639358295023 C 164.7 39.14843802141362 168.525 37.35059373741522 171 36.44118406295378 C 173.75820605559252 35.427713650382486 181.1124471542019 34.4408177334646 190 33.89149577152892 C 197.975 33.39857688570669 210.125 32.07957919378495 217 30.960389789480608 C 223.875 29.84120038517627 231.975 28.274911435334758 235 27.479747678721694 C 238.025 26.684583922108633 243.875 25.60328410621376 248 25.07685919895531 C 252.125 24.55043429169686 261.35 24.324110015805925 268.5 24.57391636364212 Z " class="even" fill="#ffffff"></path><path d="M 266.5 66 C 268.975 66 275.6125 67.16290619850413 281.25 68.58423599667583 L 291.5 71.16847199335167 L 290.5 75.10613622104029 L 289.5 79.04380044872892 L 295.5 84.53005849601786 C 298.8 87.54750042202679 305.00731562447766 92.82514532106278 309.2940347210614 96.2581582716534 L 317.0880694421228 102.5 L 317.0440347210614 108.25 C 317.00561279250593 113.26708842178898 316.77693995445753 113.92715529126465 315.25 113.4285025811017 C 314.2875 113.11417900070764 309.9581679511634 110.30167900070764 305.6292621136964 107.1785025811017 C 301.3003562762294 104.05532616149577 294.2812275799621 98.575 290.0311983442135 95 C 285.7811691084649 91.425 279.4230011573015 86.09591597261524 275.9019362305171 83.15759105025609 C 272.3808713037327 80.21926612789694 268.09962472875714 76.16926612789695 266.3880549527937 74.15759105025609 C 264.6764851768302 72.14591597261524 262.9889851768302 69.4875 262.6380549527937 68.25 L 262 66 L 266.5 66 Z " class="even" fill="#ffffff"></path><path d="M 300.5 74 C 300.775 74 303.0856881508568 74.5625 305.63486255745966 75.25 C 309.6278372138618 76.32688593968544 310.4934075154346 77.04229255327185 311.88486255745966 80.41571713099486 C 312.7731881508568 82.56936155304206 314.625 85.28017673549517 316 86.43975086977959 C 317.375 87.599325004064 321.2 89.82380178131244 324.5 91.38303259699833 C 328.0358862735659 93.05371830563611 331.65241053001205 94.07056204737749 333.30606495791835 93.85899885821361 C 335.5448774456079 93.57257244297085 336.48558043917666 94.1064568840021 337.9595020861817 96.5 C 338.9755567798715 98.15 341.88949395394286 105.35 344.4349180285626 112.5 C 346.9803421031823 119.65 348.81751971466264 125.725 348.5175349429634 126 C 348.21755017126407 126.275 343.8608105922897 124.925 338.83589143413144 123 C 333.8109722759732 121.075 329.33679727775734 118.825 328.8932803269852 118 C 328.449763376213 117.175 327.6173365500527 112.5625 327.0434429355179 107.75 L 326 99 L 313 90.5 C 305.85 85.825 299.72041733116754 81.2125 299.3787051803723 80.25 L 298.7574103607447 78.5 L 299.3787051803723 76.25 C 299.72041733116754 75.0125 300.225 74 300.5 74 Z " class="even" fill="#ffffff"></path><path d="M 319.25 79.98568600496442 C 319.9375 79.97781330769486 322.525 81.2597197832865 325 82.83436706183474 C 327.475 84.40901434038298 330.4 86.66810937086314 331.5 87.85457824067952 C 332.6 89.0410471104959 333.275 90.25368410864554 333 90.54932712545653 C 332.725 90.8449701422675 330.925 90.46828967907646 329 89.71225942947645 C 327.075 88.95622917987643 323.8125 86.91168570613515 321.75 85.16882948782913 C 319.6875 83.4259732695231 318 81.55 318 81 C 318 80.45 318.5625 79.99355870223398 319.25 79.98568600496442 Z " class="even" fill="#ffffff"></path><path d="M 109.25 118.016450419882 C 109.6625 118.00740268894691 107.79757598152082 122.3875 105.1057244033796 127.75 C 102.41387282523837 133.1125 98.13887282523838 142.7875 95.6057244033796 149.25 C 93.07257598152081 155.7125 91 161.225 91 161.5 C 91 161.775 90.51609394096052 163.2375 89.92465320213446 164.75 L 88.84930640426894 167.5 L 87.46008861786387 165 C 86.69601883534109 163.625 86.08195482642932 161.375 86.0955019313933 160 C 86.10904903635726 158.625 89.35560309927904 149.63833578772113 93.31006651566389 140.02963508382476 L 100.5 122.55927016764953 L 104.5 120.29608550370678 C 106.7 119.05133393853826 108.8375 118.02549815081711 109.25 118.016450419882 Z " class="even" fill="#ffffff"></path><path d="M 90.25 130.99034220293237 C 90.6625 130.99565399131956 89.69775380663816 134.0375 88.10611957030702 137.75 C 86.51448533397588 141.4625 83.53100065890617 148.1 81.47615362570767 152.5 C 78.12510133200746 159.6755365991063 77.79067471897015 161.11834755067028 78.23111824706227 166.5 C 78.53071394407111 170.16067342072307 79.75104936514327 174.54691075686733 81.36108419166163 177.75 L 84 183 L 82.70796759735072 188.25 L 81.41593519470143 193.5 L 79.26831614264108 188.5 C 78.08712566400789 185.75 75.91819178330732 179 74.44846307441762 173.5 L 71.77622905825453 163.5 L 72.88811452912726 156.75 C 73.49965153810727 153.0375 74.72221603994723 148.5375 75.60492453321606 146.75 C 76.4876330264849 144.9625 79.9751330264849 140.68315399131956 83.35492453321606 137.24034220293237 C 86.73471603994723 133.79753041454518 89.8375 130.98503041454518 90.25 130.99034220293237 Z " class="even" fill="#ffffff"></path><path d="M 268.7892104296177 172 C 270.68405268420463 175.575 274.04543038941154 181.425 276.25893866341073 185 C 278.4724469374099 188.575 282.3945850924501 194.2 284.9748012301666 197.5 L 289.666103298742 203.5 L 279.083051649371 206.38843047667956 C 273.26237324221694 207.97706723885332 267.375 209.83255889145462 266 210.511745260238 C 264.625 211.1909316290214 262.4875 212.0286379145156 261.25 212.37331478355844 L 259 213 L 260.0195084588585 209.75 C 260.5802381112307 207.9625 261.70840630368747 202.45 262.52654888654024 197.5 C 263.344691469393 192.55 264.3133222690578 183.325 264.6790617746842 177 L 265.34404269400505 165.5 L 268.7892104296177 172 Z " class="even" fill="#ffffff"></path><path d="M 245.17587689850149 183.04056845755872 C 245.54760919267727 185.4932558059014 245.88510919267728 195.2625 245.92587689850149 204.75 C 245.96664460432567 214.2375 245.6625 222.00560990055456 245.25 222.0124664456768 C 244.8375 222.01932299079905 242.5875 223.81932299079904 240.25 226.0124664456768 C 237.07450402599972 228.99185391578135 236.00522495227887 229.55755716576482 236.02066632292463 228.25 C 236.03203280053316 227.2875 237.09790531274618 221.325 238.3892719056202 215 C 239.68063849849423 208.675 241.58383865317813 197.89325580590142 242.61860558269558 191.04056845755872 L 244.5 178.58113691511744 L 245.17587689850149 183.04056845755872 Z " class="even" fill="#ffffff"></path><path d="M 300.68149035236513 189.64842769082153 C 304.9816706585643 193.58006292077337 309.625 197.97913430901534 311 199.42414188691478 L 313.5 202.0514283921865 L 307.5 202.0514664874973 L 301.5 202.05150458280806 L 297.18149035236513 192.27575229140405 L 292.8629807047303 182.5 L 300.68149035236513 189.64842769082153 Z " class="even" fill="#ffffff"></path><path d="M 145.666105659088 205.5 C 146.3896863108847 209.9 148.38702080996572 218 150.1046267681569 223.5 C 151.82223272634806 229 154.52634868640914 236.0875 156.11377334607042 239.25 C 157.7011980057317 242.4125 159.00932422864238 245.3375 159.0207205080942 245.75 C 159.03211678754604 246.1625 156.21961678754604 247.33993720816116 152.7707205080942 248.366527129247 C 149.32182422864238 249.39311705033288 145.7125 250.40561705033286 144.75 250.616527129247 L 143 251 L 142.99463037552715 230.75 C 142.9916770820671 219.6125 143.29554058871778 207.575 143.66988261252868 204 L 144.35050447400306 197.5 L 145.666105659088 205.5 Z " class="even" fill="#ffffff"></path><path d="M 309.25 204.0446327811474 L 316.5 204.0892655622948 L 324.35255457555843 211.7946327811474 C 328.6714595921155 216.03258475151634 335.1520254949564 223.1 338.753812137427 227.5 L 345.30251512373724 235.5 L 343.97469419370077 240 C 343.2443926821808 242.475 341.3238181340112 247.65 339.70675075332406 251.5 C 338.08968337263696 255.35 334.9447828219392 261.65 332.71808286288467 265.5 C 330.4913829038301 269.35 326.41709609459696 275.875 323.6641121756999 280 C 320.9111282568029 284.125 317.07224208558273 289.525 315.13325401743293 292 C 313.1942659492831 294.475 310.2335614038449 297.9557511646067 308.5539105831257 299.7350025880149 C 306.87425976240655 301.5142540114231 305.725 303.2151078179463 306 303.51467771362206 C 306.275 303.8142476092978 309.2 302.48710655801165 312.5 300.5654753774305 C 315.8 298.6438441968494 321.3125 294.80549039032616 324.75 292.03580025182333 L 331 287 L 327.9313054926922 293.75 C 326.2435235136729 297.4625 322.57132287644697 304.775 319.7708596321901 310 C 316.97039638793325 315.225 312.6796624623383 322.65 310.23589535309026 326.5 C 307.7921282438422 330.35 304.6018288810682 334.7470641709053 303.14634121359234 336.27125371312286 C 301.3074560842043 338.196937829989 300.957682524115 339.0299042901366 302 339.0012021476571 C 302.825 338.9784842444334 308.225 336.44587729041586 314 333.37318669428475 C 319.775 330.3004960981537 329.225 324.6911687536283 335 320.90801481756165 C 340.775 317.124860881495 345.5928487877716 314.1354036646073 345.7063306394924 314.26477655781116 C 345.81981249121327 314.394149451015 343.66565962450005 319.675 340.91932426901866 326 C 338.17298891353727 332.325 333.1785175280296 342.45 329.8204989678905 348.5 C 326.4624804077514 354.55 321.7541332744646 362.3125 319.35750533836426 365.75 C 316.9608774022639 369.1875 315.3375 372.01399392342876 315.75 372.0310976076194 C 316.1625 372.0482012918101 321.225 369.21626852435713 327 365.7379136799462 C 332.775 362.25955883553524 340.40558515040004 357.4080649121065 343.9568558897779 354.9568160723268 L 350.41371177955585 350.5 L 349.7757791724888 353 C 349.42491623860195 354.375 347.6443310882019 364.58991893585204 345.8189232827109 375.69981985744903 C 343.9935154772199 386.80972077904596 342.8375 396.14722077904594 343.25 396.44981985744903 C 343.6625 396.75241893585206 345.5773958221354 395.3125 347.5053240491897 393.25 C 349.43325227624405 391.1875 353.59575227624407 386.25554515047025 356.7553240491897 382.29010033437834 L 362.5 375.0802006687567 L 362.75 387.04010033437834 C 362.8992473455053 394.1800334447928 363.40301061797885 399 364 399 C 364.55 399 365.27535474481033 397.9875 365.61189943291186 396.75 C 366.1038432451783 394.94108579275456 366.3815693418222 394.7940571951697 367.02859370806954 396 C 367.4712308713048 396.825 368.43337612649447 400.2405540015265 369.16669427515774 403.59012000339226 L 370.5 409.6802400067845 L 356 410.3350583542401 C 346.7751642573784 410.7516508850355 338.5895645476533 411.7253795344642 333.5 413.0115750896135 C 329.1 414.12350920296825 320.325 417.0157666393535 314 419.4388138371363 C 307.675 421.8618610349191 301.6 424.1909149657493 300.5 424.61448923898115 C 299.4 425.03806351221306 301.91651922602193 421.58558381794626 306.0922649467154 416.9423121406105 C 310.2680106674088 412.2990404632747 316.97018371430613 404.45 320.9859828287093 399.5 C 325.0017819431126 394.55 330.4727627170907 387.2375 333.143717881994 383.25 C 335.81467304689727 379.2625 337.6625 375.9929380244151 337.25 375.9843067209224 C 336.8375 375.9756754174297 334.85245166934163 378.1131754174297 332.8387814874259 380.7343067209224 C 330.8251113055101 383.3554380244151 322.50011130551013 392.0423883475013 314.3387814874259 400.0386407722251 C 306.1774516693416 408.034893196949 296.35 416.79445219181895 292.5 419.50432742749183 C 288.65 422.21420266316466 283.7 424.94449791185747 281.5 425.5716502023647 C 278.40288137204317 426.4545434030446 276.25853811344064 426.4146626013424 272 425.3949678476852 C 268.975 424.67064026210426 264.25 422.6382292311692 261.5 420.87849889005173 C 258.75 419.11876854893427 243 409.58494177236025 226.5 399.6922171643316 C 210 389.79949255630305 193.60155718116076 379.409219991044 190.05901595813503 376.60272257486713 C 186.5164747351093 373.7962251586902 181.6961431137345 369.025 179.3471679106355 366 C 176.9981927075365 362.975 175.17163552637572 360.415755839173 175.28815195250047 360.31279075371776 C 175.40466837862522 360.20982566826257 178.2 360.4948818136519 181.5 360.9462488545829 C 184.8 361.39761589551387 187.61836635236028 361.7068600563409 187.7630363385784 361.6334581008651 C 187.9077063247965 361.5600561453893 185.2077063247965 359.8094552985845 181.7630363385784 357.7432339968544 C 178.31836635236027 355.67701269512435 173.25 352.0364331143289 170.5 349.6530571506422 C 167.75 347.26968118695555 164.05219878706905 342.6602258883711 162.28266397126458 339.4098231537878 C 160.5131291554601 336.1594204192045 159.0506291554601 333.1625 159.03266397126458 332.75 C 159.01469878706905 332.3375 160.9125 332.70712490184155 163.25 333.57138867075906 C 165.5875 334.4356524396766 170.7660553517709 335.44815243967656 174.75790078171306 335.82138867075906 C 179.39175401399447 336.254652419609 181.99817639904714 336.13845640380714 181.9670518011165 335.5 C 181.94023943184618 334.95 178.2914006617329 332.7 173.85852120086474 330.5 C 169.4256417399966 328.3 161.79402378126505 323.9125 156.89937018146134 320.75 L 148 315 L 144.25079788605638 307.75 C 142.1887367233874 303.7625 137.21274871527717 295.55 133.1930467569226 289.5 L 125.88449774173245 278.5 L 124.9595779158267 269.5 C 124.45087201157854 264.55 124.04251775731119 256.9 124.05212401745482 252.5 L 124.06958994498868 244.5 L 127.17281446669273 252 L 130.27603898839675 259.5 L 128.1034340923602 262.5 C 126.9085013995401 264.15 125.94639262715083 266.0625 125.96541459816183 266.75 C 125.98443656917283 267.4375 127.23750000000001 266.61565317105027 128.75 264.92367371344506 L 131.5 261.84734742689017 L 134.01571954307673 266.67367371344506 C 135.39936529176893 269.3281531710503 137.53686529176892 272.9625 138.76571954307673 274.75 L 141 278 L 138.25 278.07894736842104 L 135.5 278.1578947368421 L 138.5 279.20943518056845 C 140.15 279.78778242461794 142.30216763099577 280.9897561088285 143.28259473554613 281.8804878121474 C 144.81705393896306 283.27456540709494 145.0716417145521 283.29120139268235 145.11154210396717 282 L 145.15789473684208 280.5 L 145.70622813680671 282 C 146.00781150678728 282.825 147.2097851909978 284.52407138824196 148.37728076838567 285.77571419609325 C 149.54477634577356 287.02735700394453 151.2875 288.0398570039445 152.25 288.02571419609325 C 153.71528501660896 288.0041835525221 153.96969495237465 287.1458550498269 153.81373009346856 282.75 C 153.71128164487627 279.8625 154.16128164487625 276.4875 154.81373009346856 275.25 C 155.46617854206085 274.0125 157.9125 271.6370936596888 160.25 269.9713192437529 C 162.5875 268.30554482781696 164.8375 266.95554482781694 165.25 266.9713192437529 C 165.6625 266.9870936596888 165.98533236900425 268.0125 165.96740526445387 269.25 L 165.93481052890778 271.5 L 167.71740526445387 269.7752782070005 C 168.69783236900426 268.8266812208508 170.4 268.0316812208508 171.5 268.008611540334 C 172.6 267.9855418598172 174.07000000000008 268.536666666667 174.76666666666682 269.2333333333335 C 175.4633333333336 269.93000000000006 176.0258333333336 271.2875 176.01666666666682 272.25 C 176.00750000000008 273.2125 174.7625 274.7456833241205 173.25 275.65707405360115 C 171.7375 276.56846478308177 169.50247056643357 277.13096478308177 168.28326792540798 276.90707405360115 C 166.4740964413759 276.5748432088789 166.16602719763875 276.8677129908764 166.6076717328291 278.5 C 166.90529646793635 279.6 168.35282590150277 284.23829024016425 169.82440380742113 288.8073116448094 L 172.5 297.11462328961875 L 175.5 296.5333554474209 C 177.15 296.21365813421204 181.2 294.6399470748174 184.5 293.0362197598772 C 187.8 291.432492444937 191.5125 289.19327273376183 192.75 288.0601759572657 C 194.65516122962285 286.3157460194951 194.90324660427814 285.3486378781765 194.36870456841012 281.75 C 194.0214920810357 279.4125 193.12149208103568 275.8125 192.36870456841012 273.75 C 191.26454632601633 270.7248085127045 191.24160283756817 269.604875076744 192.25 267.95571045836493 C 193.33793119221733 266.17647337175015 193.17586238443465 265.66073617643326 191 263.9779463039537 C 189.625 262.91453526692686 188.95 262.0372378943713 189.5 262.02839658716357 C 190.05 262.01955527995585 191.7375 262.6845491494409 193.25 263.5061607415748 C 194.7625 264.32777233370865 196 264.55 196 264 C 196 263.45 194.1906927894275 262.2125 191.97931730983885 261.25 L 187.95863461967772 259.5 L 185.95799324906972 253 C 184.85764049523533 249.425 183.96694770580785 246.3875 183.97867593923087 246.25 C 183.99040417265388 246.1125 184.5625 246.0043960120668 185.25 246.009768915704 C 185.9375 246.0151418193412 188.8625 247.1401418193412 191.75 248.509768915704 C 194.6375 249.8793960120668 198.9125 253.12505981982775 201.25 255.7223551551728 C 203.5875 258.31965049051786 207.975 262.8635266763996 211 265.81985779046556 C 214.025 268.77618890453147 220.1 274.08902198003597 224.5 277.62615351380884 C 228.9 281.1632850475818 232.56548514936043 283.93190886170004 232.6455225541343 283.77865087851615 C 232.72555995890815 283.62539289533225 231.4552965164318 279.45 229.82271490418682 274.5 C 228.19013329194186 269.55 224.8808239363672 258.3 222.46869411402088 249.5 C 220.0565642916746 240.7 218.17682773415095 233.39174136065157 218.29150176396837 233.25942524589237 C 218.40617579378576 233.12710913113315 220.03963557274403 237.17710913113316 221.9214123838756 242.25942524589237 C 223.80318919500718 247.34174136065155 226.876641970228 254.875 228.75130743992185 259 C 231.2045729956224 264.39814733927835 232.38306947226167 266.0796294678557 232.95651351357674 265 C 233.39471138439305 264.175 234.2671756562675 256.525 234.8953230066311 248 L 236.03740909820118 232.5 L 238.7687045491006 229.85147180027877 C 240.27091704709525 228.3947812904321 242.625 226.86281311924128 244 226.44709808652138 L 246.5 225.6912525724852 L 246 233.33927297577344 L 245.5 240.9872933790617 L 246 240.9993537346334 C 246.275 241.00598693019782 247.9051457306935 238.64634591990892 249.62254606820778 235.75570704510255 C 251.33994640572203 232.86506817029615 253.70244640572204 228.3625 254.87254606820778 225.75 C 256.22553497019874 222.7291603059329 257.8190759343893 220.76837949189863 259.25 220.36373891436983 C 260.4875 220.0137953172732 266.225 217.4989602375402 272 214.77521651496306 C 277.775 212.05147279238594 284.4159328069664 208.85029028091952 286.7576284599254 207.66147760059323 L 291.01525691985074 205.5 L 297.2576284599254 211.43262543229864 C 300.69093280696643 214.6955694200629 303.95 217.71381364351538 304.5 218.13983481774864 C 305.05 218.5658559919819 304.375 218.65821924008117 303 218.34508648019153 C 301.625 218.03195372030186 297.125 218.50876182231863 293 219.40466004022886 C 288.875 220.30055825813906 283.25 222.08496511774746 280.5 223.3700086171364 C 277.75 224.65505211652533 273.1375 227.57249979105603 270.25 229.85322567164906 C 267.3625 232.13395155224208 265 234.45 265 235 C 265 235.55 265.675 235.775 266.5 235.5 C 267.5319761557006 235.1560079480998 267.0330096049214 236.79409140314777 264.9008297113812 240.75 C 263.19628605264086 243.9125 261.95878605264085 247.14087246860123 262.1508297113812 247.92416104133605 C 262.35228249804925 248.74582662913872 265.5671334991858 245.4671666817332 269.75 240.17416104133605 C 273.7375 235.12837246860124 277.9 230.55 279 230 C 280.755243081031 229.1223784594845 281.0037213681355 229.33654076358238 281.03040868590074 231.75 C 281.056045141828 234.0684248747263 281.21298155101846 234.22536128391673 282.03040868590074 232.75 C 282.5636839086553 231.7875 283.9 231 285 231 C 286.1 231 287.675 231.225 288.5 231.5 C 289.325 231.775 290 232.9 290 234 C 290 235.1 288.875 236.675 287.5 237.5 C 286.125 238.325 284.325 238.775 283.5 238.5 C 282.4634493126693 238.15448310422312 281.999021472872 238.69517396900397 281.99683289919346 240.25 C 281.99509099374984 241.4875 283.0075909937499 245.82836741689547 284.24683289919346 249.8963720375455 C 285.48607480463704 253.9643766581955 286.95 257.4669715444548 287.5 257.67991622923284 C 288.05 257.89286091401084 293.675 257.03949349711536 300 255.78354419168733 L 311.5 253.5 L 311.810520907442 248.5 C 311.98130740653517 245.75 311.6108222130618 241.475 310.9872204775013 239 C 310.3636187419408 236.525 308.45706242527143 232.25 306.7504286626806 229.5 L 303.6474581852426 224.5 L 306.5737290926213 225.31840917906482 C 308.18317809167957 225.76853422755045 311.4125 227.23103422755045 313.75 228.56840917906482 C 316.0875 229.90578413057915 318.528141878394 232.0125 319.1736486186534 233.25 C 319.8191553589128 234.4875 320.645796506812 236.85 321.0106289473183 238.5 L 321.67396065732987 241.5 L 324.08698032866494 236.52654184980216 C 325.4141411478992 233.79113986719335 327.625 230.52056726822138 329 229.25860274097562 L 331.5 226.9641217823469 L 328.75 227.48206089117343 C 327.2375 227.76692740102806 325.31395200373663 227.4375 324.4754488971925 226.75 C 323.11865141410175 225.63754345410908 323.1461601049236 225.30385261023707 324.7254488971925 223.71740526445387 C 325.7014520037366 222.73697815990352 326.1625 221.94947815990352 325.75 221.96740526445387 C 325.3375 221.98533236900425 324.1 222.45 323 223 C 321.9 223.55 320.1 223.775 319 223.5 C 317.4 223.1 317.1 222.4 317.5 220 C 317.775 218.35 317.6625 216.98533236900425 317.25 216.96740526445387 C 316.8375 216.94947815990352 315.6 217.81651354719077 314.5 218.89415056953663 C 313.4 219.97178759188247 311.7125 220.66145522287823 310.75 220.42674530508273 C 309.7875 220.19203538728723 309.0116258171878 219.8875 309.0258351493062 219.75 C 309.04004448142456 219.6125 307.46504448142457 216.0125 305.5258351493062 211.75 L 302 204 L 309.25 204.0446327811474 Z " class="even" fill="#ffffff"></path><path d="M 181.29809631040013 225.25 C 184.2120492811202 230.8875 188.48704928112016 238.3125 190.79809631040013 241.75 L 195 248 L 192.25 246.26328183047053 C 190.7375 245.30808683722933 187.925 243.99733174671772 186 243.35049274044474 L 182.5 242.17442181994844 L 179.27652138382916 229.3372109099742 C 177.50360814493519 222.2767449094884 176.04110814493518 216.1625 176.02652138382916 215.75 C 176.01193462272312 215.3375 178.38414333968004 219.6125 181.29809631040013 225.25 Z " class="even" fill="#ffffff"></path><path d="M 164.8578163689009 236 C 167.09717659897288 239.575 168.94526982827236 242.8375 168.96469021178862 243.25 C 168.98411059530488 243.6625 167.9875 244.0083179721273 166.75 244.01848438250508 C 164.8316403592802 244.03424424623014 164.29696256130435 243.1867188836252 163.12250107901 238.26848438250508 C 162.3648766724655 235.0958179721273 161.529283443166 231.825 161.26562723612227 231 C 161.00197102907853 230.175 162.61845613882892 232.425 164.8578163689009 236 Z " class="even" fill="#ffffff"></path><path d="M 262.5 230.5 C 262.225 230.225 260.9314664274937 231.4625 259.6254809499861 233.25 C 258.3194954724785 235.0375 256.74449547247843 237.5125 256.1254809499861 238.75 C 255.50646642749376 239.9875 255 241.45 255 242 C 255 242.55 255.45 243 256 243 C 256.55 243 258.35 240.3 260 237 C 261.65 233.7 262.775 230.775 262.5 230.5 Z " class="odd" fill="#000000"></path><path d="M 346 245.04785684656875 C 346.275 245.10851536678976 350.38651896451205 251.0850624254931 355.1367088100268 258.3290725325762 L 363.7734176200536 271.5 L 361.5140032997247 276 C 360.27132542354383 278.475 356.88113406400225 283.65 353.98024472296567 287.5 C 351.0793553819291 291.35 345.509572861565 298.05744312031106 341.60295023326773 302.4054291562468 C 337.69632760497046 306.75341519218244 329.1 315.1982131313406 322.5 321.1716467988204 C 315.9 327.1450804663002 310.3776084336896 331.91263734598914 310.2280187415324 331.7662176425737 C 310.0784290493753 331.61979793915816 312.7360415139302 326.775 316.13382421832114 321 C 319.531606922712 315.225 325.3863457131536 304.2 329.14435486374686 296.5 C 332.9023640143401 288.8 337.69104147445483 280.475 339.78586033066847 278 C 341.88067918688205 275.525 344.79828321927624 271.925 346.2694248470999 270 C 347.7405664749236 268.075 348.9744882502335 266.05 349.0114732366774 265.5 C 349.0484582231213 264.95 345.123506966596 268.726188383253 340.28935933328773 273.89152974056213 C 335.4552116999795 279.0568710978713 328.0125 286.1443710978713 323.75 289.64152974056213 C 319.4875 293.13868838325294 315.775 296 315.5 296 C 315.225 296 317.4098139881101 292.7375 320.3551421958002 288.75 C 323.3004704034904 284.7625 328.92777575937356 276.1 332.860265208874 269.5 C 336.7927546583744 262.9 341.24544067026426 254.67345294129666 342.7551230130737 251.21878431399256 C 344.2648053558832 247.76411568668846 345.725 244.98719832634774 346 245.04785684656875 Z " class="even" fill="#ffffff"></path><path d="M 322 247 C 321.45 247 321.225 247.45 321.5 248 C 321.775 248.55 322.45 249 323 249 C 323.55 249 323.775 248.55 323.5 248 C 323.225 247.45 322.55 247 322 247 Z " class="odd" fill="#000000"></path><path d="M 171.5 248.01874620114432 C 172.05 247.9593316813127 174.6375 250.40580784612413 177.25 253.45535990072523 C 179.8625 256.50491195532635 181.4375 259.05176045713716 180.75 259.1150232380826 C 180.0625 259.178286019028 176.8 259.1249007550626 173.5 258.99638931815934 C 169.79335024599138 258.8520417769519 165.3977622745079 259.45740756764513 162 260.58018348588746 C 158.975 261.5797817150411 154.5875 263.8831669790066 152.25 265.6988174058107 C 149.9125 267.5144678326148 147.1 269 146 269 C 144.2962962962963 269 144 268.3333333333333 144 264.5 C 144 262.025 143.7528873468365 259.4375 143.4508607707478 258.75 C 143.0787823603608 257.903041727474 145.7388577616892 256.5750691254265 151.7008607707478 254.6314047295724 C 156.5403873468365 253.05367733083725 160.95 251.56620494268867 161.5 251.3259105336867 C 162.05 251.08561612468475 163.625 252.48590912587983 165 254.4376727585647 C 166.375 256.38943639124955 167.8375 257.9894087793981 168.25 257.99316695445043 C 168.6625 257.9969251295027 168.325 256.2 167.5 254 L 166 250 L 168.25 249.0633863004191 C 169.4875 248.5482487656496 170.95 248.07816072097594 171.5 248.01874620114432 Z " class="even" fill="#ffffff"></path><path d="M 318.3558415966842 248.73333333333335 C 317.44918321112476 247.75601060807432 317.08592491588416 247.75947021088615 316.6058415966842 248.75 C 316.27262871850786 249.4375 316.45 250.225 317 250.5 C 317.55 250.775 318.3375 250.7675 318.75 250.48333333333335 C 319.1625 250.19916666666666 318.9851287185079 249.41166666666666 318.3558415966842 248.73333333333335 Z " class="odd" fill="#000000"></path><path d="M 144.8 271 C 145.46 271.275 146 271.8375 146 272.25 C 146 272.6625 145.6625 273 145.25 273 C 144.8375 273 144.29749999999999 272.4375 144.05 271.75 C 143.8025 271.0625 144.14 270.725 144.8 271 Z " class="even" fill="#ffffff"></path><path d="M 390.5 273.9529607353239 C 391.1346940088811 273.9592200927823 391.20888444589497 275.52216374296177 390.70309121344167 278.23141137171336 C 390.26479138083465 280.579135117271 388.7762956346691 284.975 387.3953228886295 288 C 386.0143501425899 291.025 383.46516766098 295.75 381.7304729294965 298.5 C 379.99577819801306 301.25 375.1907726918175 308 371.0526829157286 313.5 C 366.9145931396397 319 358.75541064785943 328.9 352.921166267328 335.5 C 347.0869218867965 342.1 338.1929231391576 351.4375 333.15672460590815 356.25 C 328.12052607265866 361.0625 323.7692684309198 364.8875 323.48726317982175 364.75 C 323.2052579287237 364.6125 325.97070099062483 359.1 329.63269220626864 352.5 C 333.2946834219125 345.9 338.6149672339683 335.775 341.45554512194815 330 C 344.296123009928 324.225 347.07908230718647 318.15 347.6398991158558 316.5 C 348.3383339392136 314.4451089184101 350.8396856356411 312.03671667968916 355.5797830203546 308.85519147537264 C 359.38590235915956 306.30054678682757 367.0012561631392 299.55054678682757 372.5027914736427 293.85519147537264 C 378.0043267841461 288.15983616391765 384.0793267841461 281.3496972136248 386.0027914736427 278.72154936361056 C 387.9262561631392 276.09340151359635 389.95 273.9475366308674 390.5 273.9529607353239 Z " class="even" fill="#ffffff"></path><path d="M 101.54061076214346 286 C 104.09805303254046 290.675 108.5101419944024 297.8271998143191 111.34525289961445 301.89377736515354 C 114.18036380482651 305.960354915988 120.775 313.34946194335816 126 318.3140152037539 C 131.225 323.2785684641496 135.63904745537405 326.9263686498305 135.8089943452757 326.4202378386003 C 135.97894123517733 325.91410702737016 135.21633135978857 322.35 134.11430573330068 318.5 C 133.01228010681282 314.65 131.52323265143875 308.6984083427559 130.80531138802502 305.27424076167983 C 130.08739012461126 301.8500731806037 129.725 299.0273653776212 130 299.0015567550521 C 130.275 298.975748132483 131.46612527642043 300.652339789727 132.64694505871205 302.72731599337226 C 133.8277648410037 304.80229219701755 136.7527648410037 308.28165762846595 139.14694505871205 310.4592391743688 C 141.54112527642042 312.6368207202717 149.575 318.4065513562781 157 323.28086280993864 C 164.95110460061665 328.50054768859707 169.26691213347036 331.8417414232743 167.5 331.40970867413625 C 165.85 331.00626244578444 159.4375 328.94903180977803 153.25 326.8380850385665 C 147.0625 324.7271382673549 142 323.225 142 323.5 C 142 323.775 144.64218141571308 326.8125 147.8715142571402 330.25 C 151.10084709856733 333.6875 156.05084709856732 339.3125 158.8715142571402 342.75 C 161.6921814157131 346.1875 166.25 350.8 169 353 L 174 357 L 170.75 356.35643855319717 C 168.9625 356.0024797574556 163.675 354.33294367590645 159 352.6463583719768 C 154.325 350.95977306804724 146.79794615304323 347.3118757191085 142.2732136734294 344.5399198187797 C 137.7484811938156 341.76796391845085 131.08273730175415 337.025 127.46044946884848 334 C 123.83816163594278 330.975 118.03623819746052 325.125 114.56728627222121 321 C 111.0983343469819 316.875 106.23625414765706 310.35 103.76266360705489 306.5 C 100.1955221362429 300.94795149512385 99.12981919634976 298.2588987184653 98.61061217137197 293.5 C 98.25057442234855 290.2 97.71630955187287 285.25 97.42335690364824 282.5 L 96.890715725058 277.5 L 101.54061076214346 286 Z " class="even" fill="#ffffff"></path><path d="M 162.75 297.49018377064317 C 162.3375 297.22058269678945 161.55 297.9 161 299 L 160 301 L 161 301 C 161.55 301 162.3375 300.3205826967894 162.75 299.49018377064317 L 163.5 297.98036754128634 L 162.75 297.49018377064317 Z " class="odd" fill="#000000"></path><path d="M 168 298 C 167.45 298 167 298.9 167 300 C 167 301.1 167.45 301.775 168 301.5 C 168.55 301.225 169 300.325 169 299.5 C 169 298.675 168.55 298 168 298 Z " class="odd" fill="#000000"></path><path d="M 222.9753322492391 314 L 222.45066449847823 311.5 L 220.7253322492391 315.75 C 219.7763995121576 318.0875 219 321.125 219 322.5 C 219 324.4768422163753 220.51715757251156 326.04670079907004 226.25 330.00184089691834 C 230.2375 332.7528533902235 233.6125 334.77785339022347 233.75 334.50184089691834 C 233.8875 334.22582840361326 233.26075810552442 332.5375 232.3572402344987 330.75 C 231.45372236347296 328.9625 229.09122236347298 325.025 227.1072402344987 322 C 225.1232581055244 318.975 223.2638995121576 315.375 222.9753322492391 314 Z " class="odd" fill="#000000"></path><path d="M 137.75 345.5956035335279 C 139.8125 347.02318547696825 144.425 349.66613257297286 148 351.46881930242705 L 154.5 354.74643153779834 L 155.79462173386764 360.1232157688992 C 156.50666368749484 363.0804470960046 158.69709987221728 369.55 160.6622576999175 374.5 C 162.6274155276177 379.45 166.65118691221988 388.675 169.60397188792234 395 L 174.97267184374502 406.5 L 169.8391419809954 401 C 167.0157005564831 397.975 162.89045587355548 392.8 160.6719315744896 389.5 C 158.45340727542373 386.2 155.23908918543236 380.575 153.5290024856199 377 C 151.81891578580746 373.425 149.53780930389246 367.4611173245387 148.4598769702532 363.74692738786376 C 147.38194463661392 360.03273745118884 146.1625 356.9952374511888 145.75 356.99692738786376 C 145.3375 356.9986173245387 145.00407664441744 361.3875 145.0090592098165 366.75 C 145.0152777146186 373.44268325256724 145.79105052872455 379.94928043300104 147.48305374894443 387.5 C 148.83876818006567 393.55 149.84719153564825 398.6114662894236 149.7239945391279 398.7477028653858 C 149.60079754260755 398.88393944134793 147.6322699331736 395.05893944134795 145.34948874038577 390.2477028653858 C 143.06670754759793 385.4364662894236 140.2300749810541 378.35 139.04586081473275 374.5 C 137.8616466484114 370.65 136.24452951536452 363.225 135.45226718573963 358 C 134.6600048561147 352.775 134.00913742265857 347.2625 134.00589511139265 345.75 L 134 343 L 137.75 345.5956035335279 Z " class="even" fill="#ffffff"></path><path d="M 263.75 349.0451039224913 C 260.3125 349.0699110798616 256.15 349.7487573654158 254.5 350.5536512237231 L 251.5 352.0170946024635 L 257 351.51723939645694 C 260.025 351.2423190331533 264.1875 351.013472747599 266.25 351.0086920952252 C 268.3125 351.00391144285135 270 350.55 270 350 C 270 349.43518891493426 267.2800692816609 349.0196287270883 263.75 349.0451039224913 Z " class="odd" fill="#000000"></path><path d="M 243.25 353.9575515089321 C 242.2875 353.9342048388448 240.375 354.7954690114064 239 355.8714718924023 C 237.625 356.94747477339826 236.725 358.07624326597426 237 358.37984632034886 C 237.275 358.6834493747235 239.17284556780052 358.15968520216194 241.21743459511225 357.21592593687865 C 243.262023622424 356.2721666715954 244.949523622424 355.1625 244.96743459511225 354.75 C 244.98534556780052 354.3375 244.2125 353.98089817901945 243.25 353.9575515089321 Z " class="odd" fill="#000000"></path><path d="M 405.75 472.0633863004191 C 406.4375 472.0285238351886 409.1375 473.18795989132 411.75 474.63991086960004 L 416.5 477.27982173920003 L 411.5 479.9335507741612 C 408.75 481.39310174338976 405.2625 483.3551418520698 403.75 484.29363990456113 C 402.2375 485.2321379570525 401.0137084655073 485.6625 401.0304632566829 485.25 C 401.0472180478584 484.8375 399.9222180478584 482.8125 398.5304632566829 480.75 L 396 477 L 397.75 475.5644884759501 C 398.7125 474.77495713772265 400.625 473.67848097291125 402 473.12787477636914 C 403.375 472.5772685798271 405.0625 472.09824876564954 405.75 472.0633863004191 Z " class="even" fill="#ffffff"></path><path d="M 389.25 494.0641898270433 C 389.6625 494.0288854221695 389.9848164772604 494.3375 389.96625883835645 494.75 C 389.94770119945247 495.1625 387.92270119945243 497.6375 385.46625883835645 500.25 C 383.0098164772604 502.8625 381 505.675 381 506.5 C 381 507.325 377.9625 509.79489099507657 374.25 511.98864665572574 C 370.5375 514.1824023163749 367.3875 515.5324023163749 367.25 514.9886466557257 C 367.1125 514.4448909950765 369.9477524371741 510.7375 373.55056097149793 506.75 C 377.15336950582184 502.7625 381.9908695058218 498.29138542216947 384.30056097149793 496.8141898270433 C 386.6102524371741 495.3369942319172 388.8375 494.09949423191716 389.25 494.0641898270433 Z " class="even" fill="#ffffff"></path><path d="M 446.75 501.0262237413857 C 444.4125 501.0406467991478 440.7 501.9461421531441 438.5 503.0384356391552 C 435.88756119562737 504.3355037703456 435.3672257472671 504.8465570186082 437 504.5116773235526 C 438.375 504.22966676396004 441.3 503.72231857593954 443.5 503.38423690572927 C 445.7 503.046155235519 449.3 503.3025458237425 451.5 503.9539937684482 C 453.7 504.6054417131539 457.3 506.3680525595501 459.5 507.8709067604399 C 461.7 509.3737609613297 464.51329458932094 512.1551109315038 465.7517657540466 514.051684471938 C 466.9902369187722 515.9482580123721 468.26512701539025 519.075 468.58485485764226 521 C 468.90458269989426 522.925 468.45409514916827 527.425 467.58377141158445 531 C 466.71344767400063 534.575 466.2197529412991 537.725 466.48667200558094 538 C 466.7535910698628 538.275 467.87828403126787 536.3625 468.9859896975922 533.75 C 470.10280206048157 531.1160220519317 471 526.7726083663877 471 524 C 471 521.1087876133058 470.20861360712024 517.4184092900207 469.1235986310656 515.25 C 468.09157787815167 513.1875 465.9540778781517 510.00322314122644 464.3735986310656 508.17382920272547 C 462.68894598530176 506.2238552664513 459.32782245392445 504.0516777203758 456.25 502.92382920272547 C 453.3625 501.86572314122645 449.0875 501.01180068362356 446.75 501.0262237413857 Z " class="odd" fill="#000000"></path><path d="M 439.5 507.04707596891615 C 436.1210544656032 507.0374965710465 433.20315642751746 507.76928918152254 430.5 509.30422594753725 C 428.242039214576 510.58636670361255 425.5320527951966 513.3011386572548 424.27743877013927 515.5377755276553 C 423.05503009371586 517.7169989874449 421.5558245937945 521.975 420.9458709925363 525 C 420.1378927984087 529.0070819029416 420.13515282898345 531.7214784430478 420.9357767804903 535 C 421.54017856512326 537.475 423.4893840650446 541.2660903464911 425.26734455809327 543.4246452144246 C 427.04530505114195 545.5832000823582 429.9625 547.9457000823581 431.75 548.6746452144246 C 433.5375 549.4035903464911 436.2375 550.0129063403112 437.75 550.0286807562472 C 439.2625 550.0444551721831 442.4125 548.6944551721831 444.75 547.0286807562472 C 447.7374838334755 544.8997078630597 449.8909535310223 542.1433585786405 451.9992111049703 537.75 C 454.15631265532164 533.2548563712793 454.99864371353567 530.0259206481254 454.9992111049703 526.25 C 454.999701650192 522.985481506562 454.1490793543306 519.0665784119685 452.75 515.8876565691405 C 451.39257883389126 512.8033884884892 449.309894888145 510.0386257683138 447.5 508.9182821181747 C 445.63601679515375 507.7644572407224 442.6066386747438 507.0558833698048 439.5 507.04707596891615 Z " class="odd" fill="#000000"></path><path d="M 257.7808979433837 517.2861638601457 C 258.7628284393717 518.2166850847381 259.0458426161724 524.685221388567 258.9934455975521 545 C 258.9558529384837 559.575 258.604448863961 571.805656775641 258.21254765416836 572.1792372792022 C 257.82064644437577 572.5528177827633 256.2625 573.1153177827633 254.75 573.4292372792022 L 252 574 L 252.0939416599385 555.25 C 252.14560957290468 544.9375 252.48310957290468 532.3210270797218 252.8439416599385 527.213393510493 C 253.31255988676156 520.5800305904996 253.92855970679574 517.6618715095959 255 516.9995573706387 C 255.98036734786945 516.3935402551874 256.94373093028605 516.4928269820276 257.7808979433837 517.2861638601457 Z " class="even" fill="#ffffff"></path><path d="M 349.75 517.6408100250467 C 349.6125 517.4432555388223 347.1554740974635 518.6807555388224 344.2899424388078 520.3908100250467 C 341.42441078015213 522.100864511271 338.4994107801521 524.0699999999999 337.7899424388078 524.7666666666667 C 336.73839595950585 525.7992389999047 336.7772169737971 526.0341962835449 338 526.0380026914168 C 338.825 526.0405708383627 341.6991052504595 524.5705708383626 344.3869005565767 522.7713360247501 C 347.07469586269383 520.9721012111376 349.43719586269384 519.1625 349.6369005565767 518.75 C 349.8366052504595 518.3375 349.8875 517.838364511271 349.75 517.6408100250467 Z " class="odd" fill="#000000"></path><path d="M 525.75 532.9997465546578 C 525.3375 532.999885949596 524.7993077894013 534.4625 524.5540173097806 536.25 C 524.3087268301601 538.0375 523.8757846619338 541.3 523.5919236026114 543.5 C 523.3080625432889 545.7 523.3962547538875 549.4041217694877 523.7879062928307 551.7313817099725 C 524.1795578317738 554.0586416504574 524.856446898054 555.6336416504574 525.2921042178975 555.2313817099725 C 525.7277615377411 554.8291217694876 526.1777615377412 549.662385949596 526.2921042178975 543.7497465546578 C 526.4064468980539 537.8371071597195 526.1625 532.9996071597195 525.75 532.9997465546578 Z " class="odd" fill="#000000"></path><path d="M 421.08152329949996 541.5 C 419.32549838313014 537.9911637262181 419.0741933667266 537.8069773288863 419.0349143747042 540 C 419.0102868983255 541.375 420.1173562873167 544.1875 421.4950685724624 546.25 C 422.87278085760806 548.3125 426.8125 552.0556754827297 430.25 554.5681677393995 C 435.3384707985929 558.2873658426008 437.15045635278796 559.0772056995577 440 558.8181677393995 C 442.28894240915446 558.610091273132 443.5 557.9852505760001 443.5 557.0123556487997 C 443.5 556.0088520130283 442.0355147433782 555.3204952501218 439 554.897206029455 C 436.525 554.5520781319756 433.15 553.5741924736842 431.5 552.7241267888077 C 429.85 551.8740611039311 427.28125487376616 549.9008784326362 425.7916774972581 548.3392764081524 C 424.3021001207501 546.7776743836686 422.1825307317589 543.7 421.08152329949996 541.5 Z " class="odd" fill="#000000"></path><path d="M 204.75 556.0741635943623 C 205.4375 556.033373617463 206.00295665213008 556.3375 206.0065703380668 556.75 C 206.01018402400356 557.1625 203.4226840240036 558.9514055302694 200.2565703380668 560.7253456228209 C 197.09045665213006 562.4992857153723 192.5875 565.0867857153723 190.25 566.4753456228209 C 187.9125 567.8639055302693 185.78336423338487 568.6625 185.51858718529968 568.25 C 185.25381013721451 567.8375 187.60726696407238 565.7 190.74849124498382 563.5 C 193.88971552589524 561.3 198.04385129251037 558.7458736174631 199.97990405968412 557.8241635943623 C 201.91595682685787 556.9024535712615 204.0625 556.1149535712616 204.75 556.0741635943623 Z " class="even" fill="#ffffff"></path><path d="M 256.25 582.0219620004909 C 255.83749999999998 582.034041100761 253.7 582.8551244134749 251.5 583.8465915842996 C 248.73262581178753 585.0937555192997 245.93055634455865 587.7833567504141 242.40699078201078 592.5746295838087 C 239.60583571211674 596.3835833127139 235.89333571211674 601.6375 234.15699078201078 604.25 C 232.42064585190485 606.8625 231 609.9 231 611 C 231 612.6666666666666 231.66666666666666 613 235 613 C 238.33341460532648 613 239.6249238075064 612.354206035188 242.75 609.1247637888719 C 244.8125 606.9933838727513 249.0875 600.6933838727514 252.25 595.1247637888719 C 255.41250000000002 589.5561437049923 257.775 584.325 257.5 583.5 C 257.225 582.675 256.6625 582.0098829002209 256.25 582.0219620004909 Z " class="odd" fill="#000000"></path><path d="M 238.5 585 C 236.269479306181 585 234.10338756433697 585.8160938396878 232.52800734163907 587.25 C 231.16841137954057 588.4875 227.10589406625297 593.1 223.50019108988883 597.5 C 219.8944881135247 601.9 216.2818848097871 606.9625 215.47218374824973 608.75 C 214.6624826867124 610.5375 214.225 612.45 214.5 613 C 214.775 613.55 216.125 614 217.5 614 C 218.875 614 221.6584979530698 613.2125 223.68555100682175 612.25 C 225.7126040605737 611.2875 229.05456760138355 608.25 231.11213665306582 605.5 C 233.16970570474808 602.75 236.46795500291844 597.8 238.44157953788886 594.5 C 240.41520407285927 591.2 242.02324053204944 587.7125 242.0149938916448 586.75 C 242.00359444405547 585.4195226460275 241.16095470794485 585 238.5 585 Z " class="odd" fill="#000000"></path><path d="M 252.5 587.0352137794866 C 253.99149545201033 586.9437247345147 252.73649526168714 588.7669811730303 247.56395687006255 594.2062664110656 C 243.74913314859697 598.2178198849795 239.81163314859697 602.0625 238.81395687006255 602.75 C 237.81628059152814 603.4375 239.475 600.4 242.5 596 C 245.525 591.6 248.5625 587.8105263157895 249.25 587.578947368421 C 249.9375 587.3473684210526 251.4 587.1026883060322 252.5 587.0352137794866 Z " class="even" fill="#ffffff"></path><path d="M 235.75 589.078947368421 C 236.4375 589.0355263157894 237.2034966463045 589.3375 237.45221476956556 589.75 C 237.70093289282664 590.1625 235.1275338811218 592.975 231.73355029911036 596 C 228.33956671709893 599.025 224.20712255960038 602.625 222.5503410602247 604 C 220.6503545057009 605.5768413115759 221.93120560295245 603.4360399789335 226.01900553067992 598.2025099273649 C 229.58355248880596 593.6388903874156 232.95 589.736916703205 233.5 589.5314572957859 C 234.05 589.3259978883668 235.0625 589.1223684210527 235.75 589.078947368421 Z " class="even" fill="#ffffff"></path><path d="M 250.75 594.0133647636321 C 250.8875 594.0060141436345 249.35005946272616 596.3625 247.33346547272478 599.25 C 245.3168714827234 602.1375 242.72937148272342 605.7473450553209 241.58346547272478 607.2718779007132 C 240.2705744762923 609.0185704121554 238.57536927491708 610.0384293006522 237 610.029354103998 C 234.78674812346884 610.0166042704543 235.41759399510025 609.098033824921 242.5 602.0208409669169 C 246.9 597.624079675108 250.6125 594.0207153836299 250.75 594.0133647636321 Z " class="even" fill="#ffffff"></path><path d="M 234.25 597.0849969969972 C 234.6625 597.0382486486487 233.72225375051505 598.9125 232.16056389003347 601.25 C 230.59887402955187 603.5875 228.01137402955186 606.528063430827 226.41056389003347 607.7845854018378 C 224.80975375051506 609.0411073728487 222.2625 610.0536073728488 220.75 610.0345854018378 L 218 610 L 225.75 603.5849969969972 C 230.0125 600.0567453453456 233.8375 597.1317453453456 234.25 597.0849969969972 Z " class="even" fill="#ffffff"></path><path d="M 119 615.507879037229 C 117.78618095532222 614.4652919422081 117.88157460709631 615.5364002914796 119.5 621.1220280364108 C 120.6 624.9184282574929 121.8375 628.0190447670158 122.25 628.0122869464618 C 122.6625 628.0055291259079 122.9925148803771 627.2125 122.98336640083801 626.25 C 122.97421792129893 625.2875 122.41171792129893 622.766662076276 121.73336640083801 620.64813794728 C 121.0550148803771 618.529613818284 119.825 616.2164973087611 119 615.507879037229 Z " class="odd" fill="#000000"></path><path d="M 233.5 620.5 C 233.225 620.225 231.65 621.8 230 624 C 228.35 626.2 227.3375 628.0208317071365 227.75 628.0462926825255 C 228.1625 628.0717536579144 229.7375 626.4967536579145 231.25 624.5462926825255 C 232.7625 622.5958317071364 233.775 620.775 233.5 620.5 Z " class="odd" fill="#000000"></path></g></svg>